Coordinates
version=1
nRows=9
nColumns=63
inDegrees=yes

Units are S.I. units (second, meters, Newtons, ...)
If the header above contains a line with 'inDegrees', this indicates whether rotational values are in degrees (yes) or radians (no).

endheader
time	pelvis_tilt	pelvis_list	pelvis_rotation	pelvis_tx	pelvis_ty	pelvis_tz	hip_flexion_r	hip_adduction_r	hip_rotation_r	knee_angle_r	knee_angle_r_beta	ankle_angle_r	subtalar_angle_r	mtp_angle_r	hip_flexion_l	hip_adduction_l	hip_rotation_l	knee_angle_l	knee_angle_l_beta	ankle_angle_l	subtalar_angle_l	mtp_angle_l	L5_S1_Flex_Ext	L5_S1_Lat_Bending	L5_S1_axial_rotation	L4_L5_Flex_Ext	L4_L5_Lat_Bending	L4_L5_axial_rotation	L3_L4_Flex_Ext	L3_L4_Lat_Bending	L3_L4_axial_rotation	L2_L3_Flex_Ext	L2_L3_Lat_Bending	L2_L3_axial_rotation	L1_L2_Flex_Ext	L1_L2_Lat_Bending	L1_L2_axial_rotation	L1_T12_Flex_Ext	L1_T12_Lat_Bending	L1_T12_axial_rotation	Abs_r3	Abs_r2	Abs_r1	Abs_t1	Abs_t2	neck_flexion	neck_bending	neck_rotation	arm_flex_r	arm_add_r	arm_rot_r	elbow_flex_r	pro_sup_r	wrist_flex_r	wrist_dev_r	arm_flex_l	arm_add_l	arm_rot_l	elbow_flex_l	pro_sup_l	wrist_flex_l	wrist_dev_l
      0.00000000	     -1.31959380	     -3.60605697	     86.27746348	      0.21271905	      0.66678687	      0.94801398	      7.56452250	     -2.27319318	      0.56443738	      6.21651848	      0.10849872	     15.59198562	     14.11882442	      0.00000000	      5.74214763	     -0.85088621	     -4.34556870	      3.33891092	      0.05827499	     20.64593273	     -4.54351941	      0.00000000	      0.16385517	     -0.37466195	      3.34452679	      0.30429544	     -0.49830039	      3.55355971	      0.26919766	     -0.91095306	      3.55355971	      0.18727007	     -0.91095306	      2.92646094	      0.15215591	     -0.76401064	      2.71742802	      0.09362684	     -0.58035135	      2.50839509	      1.17040109	     -4.23825087	     18.60125464	      0.00000000	      0.00000000	     26.47390034	      0.59573662	    -15.96883368	     13.03975679	    -10.19774212	     55.81540333	     38.54439863	     70.26535487	      9.68031980	     -2.72020126	     23.08424879	     -9.61259754	     83.10515621	     44.09439619	     69.47621267	     -4.15918809	     -9.03806021
      0.01694915	     -1.27836213	     -3.67978211	     86.38663248	      0.21222574	      0.66757328	      0.94862821	      7.74868349	     -2.27643177	      0.68897421	      6.01186612	      0.10492686	     15.96293616	     14.13070406	      0.00000000	      5.92739212	     -0.86887916	     -4.38398641	      3.41268360	      0.05956257	     20.14769526	     -4.49393316	      0.00000000	      0.16529962	     -0.36467801	      3.32103662	      0.30697793	     -0.48502175	      3.52860141	      0.27157075	     -0.88667811	      3.52860141	      0.18892094	     -0.88667811	      2.90590704	      0.15349723	     -0.74365139	      2.69834226	      0.09445220	     -0.56488623	      2.49077747	      1.18071867	     -4.12531056	     18.47060938	      0.00000000	      0.00000000	     26.60135614	      0.62747464	    -15.93800610	     12.82566330	     -9.92747407	     55.47013392	     37.79704846	     69.67481081	      9.88461936	     -2.59010329	     23.09492245	     -9.10467837	     82.95680789	     43.35085154	     69.56773418	     -4.24463020	     -9.19342334
      0.03389831	     -1.21377808	     -3.80242991	     86.62635612	      0.21176757	      0.66801357	      0.94906714	      7.88823401	     -2.23049335	      0.91714463	      5.70423139	      0.09955762	     16.17775929	     13.73438371	      0.00000000	      6.17413169	     -0.90672846	     -4.34729562	      3.57720079	      0.06243393	     19.79945810	     -4.32532405	      0.00000000	      0.17759575	     -0.35225674	      3.30613260	      0.32981306	     -0.46850146	      3.51276589	      0.29177205	     -0.85647704	      3.51276589	      0.20297418	     -0.85647704	      2.89286603	      0.16491541	     -0.71832194	      2.68623274	      0.10147821	     -0.54564569	      2.47959945	      1.26854867	     -3.98479869	     18.38771769	      0.00000000	      0.00000000	     26.53795386	      0.66229606	    -15.70812045	     12.33969442	     -9.59877014	     54.26035905	     36.90290023	     65.87003799	     12.11220113	     -2.05264662	     23.09061277	     -8.57614027	     82.99233077	     42.32574006	     70.82677006	     -4.07885354	    -11.25943542
      0.05084746	     -1.19427037	     -3.80769875	     86.73172645	      0.21143887	      0.66840234	      0.94947421	      7.89127142	     -2.17664168	      2.12521112	      5.39047063	      0.09408146	     16.34790883	     12.18849323	      0.00000000	      6.27774773	     -0.95062156	     -5.69029467	      3.79685112	      0.06626755	     19.72055789	     -2.30805867	      0.00000000	      0.17198236	     -0.34468749	      3.27973128	      0.31938844	     -0.45843437	      3.48471448	      0.28254982	     -0.83807317	      3.48471448	      0.19655864	     -0.83807317	      2.86976487	      0.15970282	     -0.70288674	      2.66478166	      0.09827072	     -0.53392093	      2.45979846	      1.22845280	     -3.89917385	     18.24088143	      0.00000000	      0.00000000	     26.51079502	      0.41841309	    -15.62627669	     12.60539303	     -9.81102956	     55.71478522	     36.89727070	     61.72277337	     11.96830703	     -1.02599337	     23.34417394	     -8.26858345	     83.75844504	     41.89515545	     70.54373861	     -4.55904194	    -11.88215828
      0.06779661	     -1.14620013	     -3.81149402	     86.53527485	      0.21144320	      0.66860255	      0.94977535	      8.00121162	     -2.12292003	      2.35760396	      5.28263362	      0.09219935	     16.68698711	     12.44267860	      0.00000000	      6.34322520	     -1.01337782	     -6.19482751	      4.04444160	      0.07058882	     19.41779908	     -2.04117452	      0.00000000	      0.16965867	     -0.33422046	      3.29006267	      0.31507312	     -0.44451322	      3.49569158	      0.27873223	     -0.81262364	      3.49569158	      0.19390289	     -0.81262364	      2.87880483	      0.15754504	     -0.68154237	      2.67317592	      0.09694296	     -0.51770750	      2.46754700	      1.21185492	     -3.78076874	     18.29834153	      0.00000000	      0.00000000	     26.51382571	      0.46768006	    -15.44553584	     13.04817794	    -10.05666638	     57.45344934	     36.78396596	     60.03189212	     11.79140818	     -1.57659918	     23.23438767	     -8.10263027	     83.44719514	     41.68880216	     71.99131671	     -4.97519454	    -12.23073771
      0.08474576	     -1.10073971	     -3.80487533	     86.59953922	      0.21117457	      0.66866242	      0.94974772	      7.97361525	     -2.07199213	      2.90081774	      5.06683541	      0.08843296	     16.92836168	     11.89374799	      0.00000000	      6.33843351	     -1.01281518	     -5.83727056	      4.16457179	      0.07268549	     18.91721219	     -2.54288645	      0.00000000	      0.16909344	     -0.32204279	      3.23943363	      0.31402344	     -0.42831691	      3.44189823	      0.27780362	     -0.78301483	      3.44189823	      0.19325690	     -0.78301483	      2.83450443	      0.15702017	     -0.65670965	      2.63203982	      0.09661999	     -0.49884428	      2.42957522	      1.20781757	     -3.64301242	     18.01675802	      0.00000000	      0.00000000	     26.46342186	      0.35751800	    -15.04182474	     13.32231871	    -10.24582250	     58.28849701	     36.83131406	     60.24921213	     11.87045001	     -1.87290608	     22.87366394	     -8.09163275	     82.34298427	     41.77285343	     73.92686414	     -4.78895688	    -11.79929586
      0.10169492	     -1.07030319	     -3.78304082	     86.50857090	      0.21117400	      0.66870753	      0.94963533	      7.94294170	     -2.01680917	      3.36435765	      4.90369109	      0.08558555	     17.15429137	     11.54167407	      0.00000000	      6.30870747	     -1.03940893	     -6.12532511	      4.28823489	      0.07484382	     18.64332518	     -2.39219508	      0.00000000	      0.16931870	     -0.31419743	      3.24334840	      0.31444176	     -0.41788258	      3.44605767	      0.27817369	     -0.76393963	      3.44605767	      0.19351434	     -0.76393963	      2.83792985	      0.15722934	     -0.64071140	      2.63522057	      0.09674870	     -0.48669182	      2.43251130	      1.20942653	     -3.55426416	     18.03853077	      0.00000000	      0.00000000	     26.38266268	      0.17007637	    -14.92417750	     13.41152490	    -10.46960030	     58.61306130	     37.10690225	     60.66069850	     11.72357476	     -1.90993873	     22.84604865	     -8.02228196	     82.63303613	     41.82895939	     73.59197499	     -5.24577092	    -11.77635624
      0.11864407	     -1.12167231	     -3.69343424	     86.67400804	      0.21083568	      0.66880215	      0.94951196	      7.77193832	     -2.08276720	      4.05116293	      4.68719348	      0.08180696	     17.19590024	     10.53965928	      0.00000000	      6.22009118	     -0.97587586	     -6.77371380	      4.34436735	      0.07582351	     18.68149408	     -1.22385803	      0.00000000	      0.15743903	     -0.31763726	      3.20758617	      0.29238002	     -0.42245756	      3.40806031	      0.25865658	     -0.77230324	      3.40806031	      0.17993706	     -0.77230324	      2.80663790	      0.14619788	     -0.64772590	      2.60616377	      0.08996066	     -0.49202012	      2.40568963	      1.12457123	     -3.59317623	     17.83963202	      0.00000000	      0.00000000	     26.30568324	      0.14310827	    -14.81710729	     13.47763058	    -10.72917315	     58.92929944	     37.62232145	     59.24914368	     11.55981085	     -1.10599830	     22.94931823	     -7.91625639	     83.33711410	     41.78837702	     71.92595173	     -5.51173081	    -11.55403227
      0.13559322	     -1.06903514	     -3.71079373	     86.67922806	      0.21076001	      0.66873080	      0.94935906	      7.81620456	     -2.02114445	      4.22902291	      4.70208235	      0.08206682	     17.37032302	     10.33671165	      0.00000000	      6.26668992	     -1.03166274	     -6.91633430	      4.44576739	      0.07759328	     18.72773888	     -1.06295885	      0.00000000	      0.16495881	     -0.30956518	      3.21362251	      0.30634500	     -0.41172168	      3.41447392	      0.27101083	     -0.75267677	      3.41447392	      0.18853142	     -0.75267677	      2.81191970	      0.15318075	     -0.63126531	      2.61106829	      0.09425746	     -0.47951646	      2.41021689	      1.17828427	     -3.50186319	     17.87320434	      0.00000000	      0.00000000	     26.25818491	      0.01380754	    -14.82378105	     13.36496316	    -10.92186192	     58.80037370	     37.97244074	     58.90378156	     11.35407399	     -1.02352017	     22.89839511	     -7.70513187	     83.69103183	     41.45658445	     71.51052439	     -5.70923248	    -11.96259751
